<?xml version="1.0" standalone="no"?>
<!DOCTYPE svg PUBLIC "-//W3C//DTD SVG 20010904//EN"
 "http://www.w3.org/TR/2001/REC-SVG-20010904/DTD/svg10.dtd">
<svg version="1.0" xmlns="http://www.w3.org/2000/svg"
 width="301.000000pt" height="301.000000pt" viewBox="0 0 301.000000 301.000000"
 preserveAspectRatio="xMidYMid meet">
<metadata>
Created by potrace 1.11, written by Peter Selinger 2001-2013
</metadata>
<g transform="translate(0.000000,301.000000) scale(0.100000,-0.100000)"
fill="#000000" stroke="none">
<path d="M201 2311 c-80 -174 -140 -409 -162 -631 -29 -303 29 -665 153 -947
l40 -93 235 0 c184 0 233 3 227 13 -4 6 -15 24 -25 38 -10 14 -39 67 -64 117
-126 253 -172 471 -162 762 10 276 75 503 210 733 l46 77 -233 0 -233 0 -32
-69z"/>
<path d="M2316 2353 c157 -240 244 -538 244 -840 0 -267 -51 -479 -174 -720
-25 -49 -55 -103 -67 -120 l-21 -33 235 0 235 0 40 93 c212 484 210 1096 -6
1570 l-35 77 -235 0 -234 0 18 -27z"/>
<path d="M687 2123 c-107 -211 -148 -381 -148 -613 -1 -229 42 -406 147 -612
l56 -108 180 0 180 0 -45 53 c-102 121 -172 258 -214 415 -22 84 -26 118 -26
252 0 136 3 167 26 255 42 155 128 320 225 427 l34 38 -180 0 -180 0 -55 -107z"/>
<path d="M1949 2184 c96 -109 176 -265 218 -422 22 -84 26 -118 26 -252 0
-136 -3 -167 -26 -252 -42 -157 -128 -323 -225 -430 l-34 -38 180 0 180 0 45
88 c61 118 100 218 128 332 21 85 24 117 23 305 0 203 -1 214 -32 330 -22 82
-52 161 -97 253 l-65 132 -181 0 -181 0 41 -46z"/>
<path d="M1343 2142 l-33 -3 0 -80 0 -80 77 3 76 3 1 68 c1 37 -1 72 -4 76 -6
10 -72 17 -117 13z"/>
<path d="M1735 1888 c-16 -6 -41 -18 -55 -28 -40 -27 -51 -32 -49 -23 7 43 0
49 -66 49 -38 0 -66 -4 -66 -10 -1 -6 -2 -242 -3 -523 l-2 -513 67 0 c45 0 68
4 71 13 2 6 3 72 2 145 0 72 0 132 1 132 2 0 22 -7 46 -16 60 -21 177 -21 224
1 49 24 114 91 148 153 53 97 67 279 32 415 -26 101 -91 184 -163 205 -48 15
-146 14 -187 0z m158 -166 c42 -44 59 -105 59 -212 0 -170 -54 -260 -159 -262
-66 -2 -139 11 -151 25 -5 7 -9 97 -8 209 1 196 1 198 25 214 53 38 98 53 152
54 48 0 59 -4 82 -28z"/>
<path d="M1180 1814 l0 -66 65 4 c59 3 65 1 66 -17 6 -104 2 -643 -4 -675 -14
-71 -83 -97 -172 -65 -21 8 -41 13 -43 11 -1 -2 -4 -36 -5 -75 l-2 -71 35 -12
c19 -6 64 -11 100 -11 82 0 158 35 195 91 47 71 50 109 50 543 l-1 404 -142 3
-142 3 0 -67z"/>
</g>
</svg>
